<!--?xml version="1.0" standalone="no"?-->              <svg id="sw-js-blob-svg" viewBox="0 0 100 100" xmlns="http://www.w3.org/2000/svg">                    <defs>                         <linearGradient id="sw-gradient" x1="0" x2="1" y1="1" y2="0">                            <stop id="stop1" stop-color="rgba(124.222, 86, 218.989, 1)" offset="0%"></stop>                            <stop id="stop2" stop-color="rgba(45, 32, 226, 1)" offset="100%"></stop>                        </linearGradient>                    </defs>                <path fill="url(#sw-gradient)" d="M25.3,-34.5C31.8,-30,35.6,-21.4,38.6,-12.5C41.6,-3.5,43.9,5.7,41.2,13.2C38.5,20.7,30.9,26.4,23.3,31.4C15.6,36.3,7.8,40.4,1.3,38.7C-5.2,36.9,-10.5,29.3,-16.2,23.7C-21.9,18.1,-28.1,14.6,-29.1,9.8C-30.2,5,-26.1,-1,-24.5,-8.7C-23,-16.3,-24,-25.4,-20.4,-30.8C-16.7,-36.2,-8.4,-37.8,0.5,-38.5C9.4,-39.2,18.7,-38.9,25.3,-34.5Z" width="100%" height="100%" transform="translate(50 50)" style="transition: all 0.3s ease 0s;" stroke-width="0" stroke="url(#sw-gradient)"></path>              </svg>